# xmcd
#
# Track frame offsets:
# 150
# 18812
# 41395
# 57655
# 76427
# 81607
# 107480
# 124050
# 141065
# 156075
#
# Disc length: 2406 seconds
#
#
# Revision: 0
# Processed by: cddbd v1.5.1PL0 Copyright (c) Steve Scherf et al.
# Submitted via: FreeRIP 2.93 
#
DISCID=7c09640a
DTITLE=Prose and Cons - Evolution
DYEAR=1900
DGENRE=Jazz+Funk
TTITLE0=What Else is New
TTITLE1=Buzzsaw
TTITLE2=Moral Degenerate
TTITLE3=Ghosts of Studio 'C'
TTITLE4=WEIN
TTITLE5=Movin' On
TTITLE6=Let the Harp Blow
TTITLE7=Urusai Na
TTITLE8=Retro-fit Ravers
TTITLE9=Is it Over
EXTD=
EXTT0=
EXTT1=
EXTT2=
EXTT3=
EXTT4=
EXTT5=
EXTT6=
EXTT7=
EXTT8=
EXTT9=
PLAYORDER=
